<svg width="36" height="35" viewBox="0 0 36 35" fill="none" xmlns="http://www.w3.org/2000/svg">
<path d="M32.8895 2.94927C30.8157 0.980442 28.0928 -0.00390339 25.3742 3.50596e-05C22.6555 -0.00397014 19.9325 0.980509 17.8587 2.94933L12.063 8.45155L27.0896 22.7174L32.8853 17.2152C37.0372 13.2736 37.0372 6.88692 32.8895 2.94927ZM28.822 3.8176C28.6365 4.73799 27.6966 5.34238 26.7229 5.16214C26.1707 5.06221 25.6018 5.01015 25.0327 5.00607C24.4679 5.00607 23.8988 5.05807 23.3424 5.16214C22.7397 5.27022 22.1454 5.08224 21.7365 4.69393C21.4922 4.4619 21.3193 4.16178 21.2475 3.81366C21.0622 2.89333 21.6943 2.00491 22.668 1.82474C23.4436 1.68069 24.2446 1.60873 25.037 1.60873C25.8293 1.60873 26.6261 1.68469 27.4058 1.82481C28.3752 2.00083 29.0118 2.89326 28.822 3.8176Z" fill="black"/>
<path d="M3.11078 16.9513C1.03276 18.9241 0 21.5051 0 24.0902C0 26.6673 1.03683 29.2524 3.11064 31.2212C7.25826 35.1589 13.9857 35.1588 18.1373 31.2172L23.9288 25.719L8.90224 11.453L3.11078 16.9513Z" fill="black"/>
</svg>
